<?xml version="1.0" encoding="utf-8"?>
<!-- Generator: Adobe Illustrator 26.0.2, SVG Export Plug-In . SVG Version: 6.00 Build 0)  -->
<svg id="Layer_1" shape-rendering="auto" style="enable-background:new 0 0 82.3 82.3;"
     version="1.1" viewBox="0 0 82.3 82.3" x="0px" xml:space="preserve"
     xmlns="http://www.w3.org/2000/svg" y="0px">
<circle cx="23.9" cy="1.1" r="1.2"/>
  <path d="M32.4-0.2c-0.7,0-1.2,0.6-1.2,1.2s0.6,1.2,1.2,1.2h1.4v-2.5H32.4z"/>
  <rect height="2.5" width="2.9" x="33.9" y="-0.2"/>
  <path d="M38.1,2.3c0.7,0,1.2-0.6,1.2-1.2s-0.6-1.2-1.2-1.2h-1.4v2.5H38.1z"/>
  <path d="M52.4-0.2c-0.7,0-1.2,0.6-1.2,1.2s0.6,1.2,1.2,1.2h1.4v-2.5H52.4z"/>
  <path d="M55.2,2.3c0.7,0,1.2-0.6,1.2-1.2s-0.6-1.2-1.2-1.2h-1.4v2.5H55.2z"/>
  <circle cx="23.9" cy="3.9" r="1.2"/>
  <path d="M32.4,2.7c-0.7,0-1.2,0.6-1.2,1.2s0.6,1.2,1.2,1.2h1.4V2.7H32.4z"/>
  <path d="M35.3,5.2c0.7,0,1.2-0.6,1.2-1.2S36,2.7,35.3,2.7h-1.4v2.5H35.3z"/>
  <path d="M41,2.7c-0.7,0-1.2,0.6-1.2,1.2s0.6,1.2,1.2,1.2h1.4V2.7H41z"/>
  <rect height="2.5" width="2.9" x="42.4" y="2.7"/>
  <rect height="2.5" width="2.9" x="45.2" y="2.7"/>
  <path d="M49.5,5.2c0.7,0,1.2-0.6,1.2-1.2s-0.6-1.2-1.2-1.2h-1.4v2.5H49.5z"/>
  <circle cx="58.1" cy="3.9" r="1.2"/>
  <path d="M23.9,5.5c-0.7,0-1.2,0.6-1.2,1.2S23.2,8,23.9,8h1.4V5.5H23.9z"/>
  <path d="M26.7,8C27.4,8,28,7.5,28,6.8s-0.6-1.2-1.2-1.2h-1.4V8H26.7z"/>
  <circle cx="32.4" cy="6.8" r="1.2"/>
  <circle cx="38.1" cy="6.8" r="1.2"/>
  <circle cx="58.1" cy="6.8" r="1.2"/>
  <circle cx="29.6" cy="9.6" r="1.2"/>
  <path d="M38.1,8.4c-0.7,0-1.2,0.6-1.2,1.2s0.6,1.2,1.2,1.2h1.4V8.4H38.1z"/>
  <path d="M41,10.9c0.7,0,1.2-0.6,1.2-1.2S41.7,8.4,41,8.4h-1.4v2.5H41z"/>
  <path d="M49.5,8.4c-0.7,0-1.2,0.6-1.2,1.2s0.6,1.2,1.2,1.2H51V8.4H49.5z"/>
  <path d="M52.4,10.9c0.7,0,1.2-0.6,1.2-1.2s-0.6-1.2-1.2-1.2H51v2.5H52.4z"/>
  <circle cx="58.1" cy="9.6" r="1.2"/>
  <circle cx="29.6" cy="12.5" r="1.2"/>
  <circle cx="35.3" cy="12.5" r="1.2"/>
  <circle cx="52.4" cy="12.5" r="1.2"/>
  <path d="M23.9,14.1c-0.7,0-1.2,0.6-1.2,1.2c0,0.7,0.6,1.2,1.2,1.2h1.4v-2.5H23.9z"/>
  <path d="M26.7,16.6c0.7,0,1.2-0.6,1.2-1.2c0-0.7-0.6-1.2-1.2-1.2h-1.4v2.5H26.7z"/>
  <path d="M35.3,14.1c-0.7,0-1.2,0.6-1.2,1.2c0,0.7,0.6,1.2,1.2,1.2h1.4v-2.5H35.3z"/>
  <path d="M38.1,16.6c0.7,0,1.2-0.6,1.2-1.2c0-0.7-0.6-1.2-1.2-1.2h-1.4v2.5H38.1z"/>
  <circle cx="43.8" cy="15.3" r="1.2"/>
  <circle cx="52.4" cy="15.3" r="1.2"/>
  <circle cx="58.1" cy="15.3" r="1.2"/>
  <circle cx="23.9" cy="18.2" r="1.2"/>
  <circle cx="29.6" cy="18.2" r="1.2"/>
  <circle cx="35.3" cy="18.2" r="1.2"/>
  <circle cx="41" cy="18.2" r="1.2"/>
  <circle cx="46.7" cy="18.2" r="1.2"/>
  <circle cx="52.4" cy="18.2" r="1.2"/>
  <circle cx="58.1" cy="18.2" r="1.2"/>
  <circle cx="23.9" cy="21" r="1.2"/>
  <circle cx="29.6" cy="21" r="1.2"/>
  <path d="M38.1,19.8c-0.7,0-1.2,0.6-1.2,1.2c0,0.7,0.6,1.2,1.2,1.2h1.4v-2.5H38.1z"/>
  <rect height="2.5" width="2.9" x="39.5" y="19.8"/>
  <rect height="2.5" width="2.9" x="42.4" y="19.8"/>
  <path d="M46.7,22.3c0.7,0,1.2-0.6,1.2-1.2c0-0.7-0.6-1.2-1.2-1.2h-1.4v2.5H46.7z"/>
  <path d="M52.4,19.8c-0.7,0-1.2,0.6-1.2,1.2c0,0.7,0.6,1.2,1.2,1.2h1.4v-2.5H52.4z"/>
  <rect height="2.5" width="2.9" x="53.8" y="19.8"/>
  <path d="M58.1,22.3c0.7,0,1.2-0.6,1.2-1.2c0-0.7-0.6-1.2-1.2-1.2h-1.4v2.5H58.1z"/>
  <path d="M6.8,22.6c-0.7,0-1.2,0.6-1.2,1.2c0,0.7,0.6,1.2,1.2,1.2h1.4v-2.5H6.8z"/>
  <rect height="2.5" width="2.9" x="8.2" y="22.6"/>
  <path d="M12.5,25.1c0.7,0,1.2-0.6,1.2-1.2c0-0.7-0.6-1.2-1.2-1.2h-1.4v2.5H12.5z"/>
  <circle cx="18.2" cy="23.9" r="1.2"/>
  <path d="M23.9,22.6c-0.7,0-1.2,0.6-1.2,1.2c0,0.7,0.6,1.2,1.2,1.2h1.4v-2.5H23.9z"/>
  <rect height="2.5" width="2.9" x="25.3" y="22.6"/>
  <rect height="2.5" width="2.9" x="28.1" y="22.6"/>
  <path d="M32.4,25.1c0.7,0,1.2-0.6,1.2-1.2c0-0.7-0.6-1.2-1.2-1.2H31v2.5H32.4z"/>
  <circle cx="41" cy="23.9" r="1.2"/>
  <circle cx="46.7" cy="23.9" r="1.2"/>
  <circle cx="52.4" cy="23.9" r="1.2"/>
  <path d="M60.9,22.6c-0.7,0-1.2,0.6-1.2,1.2c0,0.7,0.6,1.2,1.2,1.2h1.4v-2.5H60.9z"/>
  <rect height="2.5" width="2.9" x="62.4" y="22.6"/>
  <path d="M66.6,25.1c0.7,0,1.2-0.6,1.2-1.2c0-0.7-0.6-1.2-1.2-1.2h-1.4v2.5H66.6z"/>
  <path d="M75.2,22.6c-0.7,0-1.2,0.6-1.2,1.2c0,0.7,0.6,1.2,1.2,1.2h1.4v-2.5H75.2z"/>
  <rect height="2.5" width="2.9" x="76.6" y="22.6"/>
  <path d="M80.9,25.1c0.7,0,1.2-0.6,1.2-1.2c0-0.7-0.6-1.2-1.2-1.2h-1.4v2.5H80.9z"/>
  <path d="M1.1,25.5c-0.7,0-1.2,0.6-1.2,1.2c0,0.7,0.6,1.2,1.2,1.2h1.4v-2.5H1.1z"/>
  <path d="M3.9,28c0.7,0,1.2-0.6,1.2-1.2c0-0.7-0.6-1.2-1.2-1.2H2.5V28H3.9z"/>
  <path d="M9.6,25.5c-0.7,0-1.2,0.6-1.2,1.2c0,0.7,0.6,1.2,1.2,1.2h1.4v-2.5H9.6z"/>
  <rect height="2.5" width="2.9" x="11.1" y="25.5"/>
  <path d="M15.3,28c0.7,0,1.2-0.6,1.2-1.2c0-0.7-0.6-1.2-1.2-1.2h-1.4V28H15.3z"/>
  <path d="M60.9,25.5c-0.7,0-1.2,0.6-1.2,1.2c0,0.7,0.6,1.2,1.2,1.2h1.4v-2.5H60.9z"/>
  <path d="M63.8,28c0.7,0,1.2-0.6,1.2-1.2c0-0.7-0.6-1.2-1.2-1.2h-1.4V28H63.8z"/>
  <circle cx="69.5" cy="26.7" r="1.2"/>
  <path d="M78,25.5c-0.7,0-1.2,0.6-1.2,1.2c0,0.7,0.6,1.2,1.2,1.2h1.4v-2.5H78z"/>
  <path d="M80.9,28c0.7,0,1.2-0.6,1.2-1.2c0-0.7-0.6-1.2-1.2-1.2h-1.4V28H80.9z"/>
  <path d="M3.9,28.3c-0.7,0-1.2,0.6-1.2,1.2c0,0.7,0.6,1.2,1.2,1.2h1.4v-2.5H3.9z"/>
  <rect height="2.5" width="2.9" x="5.4" y="28.3"/>
  <rect height="2.5" width="2.9" x="8.2" y="28.3"/>
  <rect height="2.5" width="2.9" x="11.1" y="28.3"/>
  <rect height="2.5" width="2.9" x="13.9" y="28.3"/>
  <rect height="2.5" width="2.9" x="16.8" y="28.3"/>
  <rect height="2.5" width="2.9" x="19.6" y="28.3"/>
  <path d="M23.9,30.8c0.7,0,1.2-0.6,1.2-1.2c0-0.7-0.6-1.2-1.2-1.2h-1.4v2.5H23.9z"/>
  <circle cx="58.1" cy="29.6" r="1.2"/>
  <circle cx="75.2" cy="29.6" r="1.2"/>
  <path d="M6.8,31.2c-0.7,0-1.2,0.6-1.2,1.2c0,0.7,0.6,1.2,1.2,1.2h1.4v-2.5H6.8z"/>
  <rect height="2.5" width="2.9" x="8.2" y="31.2"/>
  <rect height="2.5" width="2.9" x="11.1" y="31.2"/>
  <path d="M15.3,33.7c0.7,0,1.2-0.6,1.2-1.2c0-0.7-0.6-1.2-1.2-1.2h-1.4v2.5H15.3z"/>
  <circle cx="21" cy="32.4" r="1.2"/>
  <circle cx="58.1" cy="32.4" r="1.2"/>
  <path d="M63.8,31.2c-0.7,0-1.2,0.6-1.2,1.2c0,0.7,0.6,1.2,1.2,1.2h1.4v-2.5H63.8z"/>
  <rect height="2.5" width="2.9" x="65.2" y="31.2"/>
  <rect height="2.5" width="2.9" x="68.1" y="31.2"/>
  <rect height="2.5" width="2.9" x="70.9" y="31.2"/>
  <path d="M75.2,33.7c0.7,0,1.2-0.6,1.2-1.2c0-0.7-0.6-1.2-1.2-1.2h-1.4v2.5H75.2z"/>
  <path d="M1.1,34c-0.7,0-1.2,0.6-1.2,1.2s0.6,1.2,1.2,1.2h1.4V34H1.1z"/>
  <path d="M3.9,36.5c0.7,0,1.2-0.6,1.2-1.2S4.6,34,3.9,34H2.5v2.5H3.9z"/>
  <path d="M15.3,34c-0.7,0-1.2,0.6-1.2,1.2s0.6,1.2,1.2,1.2h1.4V34H15.3z"/>
  <path d="M18.2,36.5c0.7,0,1.2-0.6,1.2-1.2S18.9,34,18.2,34h-1.4v2.5H18.2z"/>
  <path d="M58.1,34c-0.7,0-1.2,0.6-1.2,1.2s0.6,1.2,1.2,1.2h1.4V34H58.1z"/>
  <path d="M60.9,36.5c0.7,0,1.2-0.6,1.2-1.2S61.6,34,60.9,34h-1.4v2.5H60.9z"/>
  <circle cx="69.5" cy="35.3" r="1.2"/>
  <path d="M75.2,34c-0.7,0-1.2,0.6-1.2,1.2s0.6,1.2,1.2,1.2h1.4V34H75.2z"/>
  <path d="M78,36.5c0.7,0,1.2-0.6,1.2-1.2S78.7,34,78,34h-1.4v2.5H78z"/>
  <circle cx="12.5" cy="38.1" r="1.2"/>
  <path d="M21,36.9c-0.7,0-1.2,0.6-1.2,1.2s0.6,1.2,1.2,1.2h1.4v-2.5H21z"/>
  <path d="M23.9,39.4c0.7,0,1.2-0.6,1.2-1.2s-0.6-1.2-1.2-1.2h-1.4v2.5H23.9z"/>
  <circle cx="58.1" cy="38.1" r="1.2"/>
  <circle cx="63.8" cy="38.1" r="1.2"/>
  <path d="M69.5,36.9c-0.7,0-1.2,0.6-1.2,1.2s0.6,1.2,1.2,1.2h1.4v-2.5H69.5z"/>
  <path d="M72.3,39.4c0.7,0,1.2-0.6,1.2-1.2s-0.6-1.2-1.2-1.2h-1.4v2.5H72.3z"/>
  <circle cx="80.9" cy="38.1" r="1.2"/>
  <circle cx="1.1" cy="41" r="1.2"/>
  <circle cx="9.6" cy="41" r="1.2"/>
  <path d="M18.2,39.7c-0.7,0-1.2,0.6-1.2,1.2c0,0.7,0.6,1.2,1.2,1.2h1.4v-2.5H18.2z"/>
  <rect height="2.5" width="2.9" x="19.6" y="39.7"/>
  <path d="M23.9,42.2c0.7,0,1.2-0.6,1.2-1.2c0-0.7-0.6-1.2-1.2-1.2h-1.4v2.5H23.9z"/>
  <circle cx="66.6" cy="41" r="1.2"/>
  <circle cx="75.2" cy="41" r="1.2"/>
  <circle cx="80.9" cy="41" r="1.2"/>
  <circle cx="1.1" cy="43.8" r="1.2"/>
  <circle cx="6.8" cy="43.8" r="1.2"/>
  <circle cx="12.5" cy="43.8" r="1.2"/>
  <circle cx="21" cy="43.8" r="1.2"/>
  <path d="M60.9,42.6c-0.7,0-1.2,0.6-1.2,1.2s0.6,1.2,1.2,1.2h1.4v-2.5H60.9z"/>
  <rect height="2.5" width="2.9" x="62.4" y="42.6"/>
  <rect height="2.5" width="2.9" x="65.2" y="42.6"/>
  <path d="M69.5,45.1c0.7,0,1.2-0.6,1.2-1.2s-0.6-1.2-1.2-1.2h-1.4v2.5H69.5z"/>
  <path d="M75.2,42.6c-0.7,0-1.2,0.6-1.2,1.2s0.6,1.2,1.2,1.2h1.4v-2.5H75.2z"/>
  <rect height="2.5" width="2.9" x="76.6" y="42.6"/>
  <path d="M80.9,45.1c0.7,0,1.2-0.6,1.2-1.2s-0.6-1.2-1.2-1.2h-1.4v2.5H80.9z"/>
  <circle cx="12.5" cy="46.7" r="1.2"/>
  <path d="M18.2,45.4c-0.7,0-1.2,0.6-1.2,1.2c0,0.7,0.6,1.2,1.2,1.2h1.4v-2.5H18.2z"/>
  <path d="M21,47.9c0.7,0,1.2-0.6,1.2-1.2c0-0.7-0.6-1.2-1.2-1.2h-1.4v2.5H21z"/>
  <path d="M58.1,45.4c-0.7,0-1.2,0.6-1.2,1.2c0,0.7,0.6,1.2,1.2,1.2h1.4v-2.5H58.1z"/>
  <path d="M60.9,47.9c0.7,0,1.2-0.6,1.2-1.2c0-0.7-0.6-1.2-1.2-1.2h-1.4v2.5H60.9z"/>
  <circle cx="66.6" cy="46.7" r="1.2"/>
  <path d="M1.1,48.3c-0.7,0-1.2,0.6-1.2,1.2s0.6,1.2,1.2,1.2h1.4v-2.5H1.1z"/>
  <rect height="2.5" width="2.9" x="2.5" y="48.3"/>
  <path d="M6.8,50.8c0.7,0,1.2-0.6,1.2-1.2s-0.6-1.2-1.2-1.2H5.4v2.5H6.8z"/>
  <circle cx="21" cy="49.5" r="1.2"/>
  <path d="M63.8,48.3c-0.7,0-1.2,0.6-1.2,1.2s0.6,1.2,1.2,1.2h1.4v-2.5H63.8z"/>
  <path d="M66.6,50.8c0.7,0,1.2-0.6,1.2-1.2s-0.6-1.2-1.2-1.2h-1.4v2.5H66.6z"/>
  <circle cx="72.3" cy="49.5" r="1.2"/>
  <circle cx="78" cy="49.5" r="1.2"/>
  <circle cx="1.1" cy="52.4" r="1.2"/>
  <circle cx="6.8" cy="52.4" r="1.2"/>
  <circle cx="12.5" cy="52.4" r="1.2"/>
  <circle cx="18.2" cy="52.4" r="1.2"/>
  <circle cx="60.9" cy="52.4" r="1.2"/>
  <circle cx="75.2" cy="52.4" r="1.2"/>
  <circle cx="1.1" cy="55.2" r="1.2"/>
  <path d="M6.8,54c-0.7,0-1.2,0.6-1.2,1.2c0,0.7,0.6,1.2,1.2,1.2h1.4V54H6.8z"/>
  <path d="M9.6,56.5c0.7,0,1.2-0.6,1.2-1.2c0-0.7-0.6-1.2-1.2-1.2H8.2v2.5H9.6z"/>
  <circle cx="15.3" cy="55.2" r="1.2"/>
  <circle cx="58.1" cy="55.2" r="1.2"/>
  <circle cx="63.8" cy="55.2" r="1.2"/>
  <path d="M69.5,54c-0.7,0-1.2,0.6-1.2,1.2c0,0.7,0.6,1.2,1.2,1.2h1.4V54H69.5z"/>
  <path d="M72.3,56.5c0.7,0,1.2-0.6,1.2-1.2c0-0.7-0.6-1.2-1.2-1.2h-1.4v2.5H72.3z"/>
  <path d="M78,54c-0.7,0-1.2,0.6-1.2,1.2c0,0.7,0.6,1.2,1.2,1.2h1.4V54H78z"/>
  <path d="M80.9,56.5c0.7,0,1.2-0.6,1.2-1.2c0-0.7-0.6-1.2-1.2-1.2h-1.4v2.5H80.9z"/>
  <circle cx="1.1" cy="58.1" r="1.2"/>
  <path d="M6.8,56.8c-0.7,0-1.2,0.6-1.2,1.2s0.6,1.2,1.2,1.2h1.4v-2.5H6.8z"/>
  <path d="M9.6,59.3c0.7,0,1.2-0.6,1.2-1.2s-0.6-1.2-1.2-1.2H8.2v2.5H9.6z"/>
  <path d="M18.2,56.8c-0.7,0-1.2,0.6-1.2,1.2s0.6,1.2,1.2,1.2h1.4v-2.5H18.2z"/>
  <path d="M21,59.3c0.7,0,1.2-0.6,1.2-1.2s-0.6-1.2-1.2-1.2h-1.4v2.5H21z"/>
  <path d="M32.4,56.8c-0.7,0-1.2,0.6-1.2,1.2s0.6,1.2,1.2,1.2h1.4v-2.5H32.4z"/>
  <rect height="2.5" width="2.9" x="33.9" y="56.8"/>
  <path d="M38.1,59.3c0.7,0,1.2-0.6,1.2-1.2s-0.6-1.2-1.2-1.2h-1.4v2.5H38.1z"/>
  <circle cx="43.8" cy="58.1" r="1.2"/>
  <circle cx="52.4" cy="58.1" r="1.2"/>
  <path d="M58.1,56.8c-0.7,0-1.2,0.6-1.2,1.2s0.6,1.2,1.2,1.2h1.4v-2.5H58.1z"/>
  <rect height="2.5" width="2.9" x="59.5" y="56.8"/>
  <rect height="2.5" width="2.9" x="62.4" y="56.8"/>
  <rect height="2.5" width="2.9" x="65.2" y="56.8"/>
  <path d="M69.5,59.3c0.7,0,1.2-0.6,1.2-1.2s-0.6-1.2-1.2-1.2h-1.4v2.5H69.5z"/>
  <path d="M78,56.8c-0.7,0-1.2,0.6-1.2,1.2s0.6,1.2,1.2,1.2h1.4v-2.5H78z"/>
  <path d="M80.9,59.3c0.7,0,1.2-0.6,1.2-1.2s-0.6-1.2-1.2-1.2h-1.4v2.5H80.9z"/>
  <path d="M23.9,59.7c-0.7,0-1.2,0.6-1.2,1.2c0,0.7,0.6,1.2,1.2,1.2h1.4v-2.5H23.9z"/>
  <path d="M26.7,62.2c0.7,0,1.2-0.6,1.2-1.2c0-0.7-0.6-1.2-1.2-1.2h-1.4v2.5H26.7z"/>
  <path d="M35.3,59.7c-0.7,0-1.2,0.6-1.2,1.2c0,0.7,0.6,1.2,1.2,1.2h1.4v-2.5H35.3z"/>
  <rect height="2.5" width="2.9" x="36.7" y="59.7"/>
  <rect height="2.5" width="2.9" x="39.5" y="59.7"/>
  <rect height="2.5" width="2.9" x="42.4" y="59.7"/>
  <rect height="2.5" width="2.9" x="45.2" y="59.7"/>
  <rect height="2.5" width="2.9" x="48.1" y="59.7"/>
  <rect height="2.5" width="2.9" x="51" y="59.7"/>
  <rect height="2.5" width="2.9" x="53.8" y="59.7"/>
  <path d="M58.1,62.2c0.7,0,1.2-0.6,1.2-1.2c0-0.7-0.6-1.2-1.2-1.2h-1.4v2.5H58.1z"/>
  <path d="M69.5,59.7c-0.7,0-1.2,0.6-1.2,1.2c0,0.7,0.6,1.2,1.2,1.2h1.4v-2.5H69.5z"/>
  <path d="M72.3,62.2c0.7,0,1.2-0.6,1.2-1.2c0-0.7-0.6-1.2-1.2-1.2h-1.4v2.5H72.3z"/>
  <circle cx="80.9" cy="60.9" r="1.2"/>
  <circle cx="29.6" cy="63.8" r="1.2"/>
  <path d="M38.1,62.5c-0.7,0-1.2,0.6-1.2,1.2s0.6,1.2,1.2,1.2h1.4v-2.5H38.1z"/>
  <path d="M41,65c0.7,0,1.2-0.6,1.2-1.2s-0.6-1.2-1.2-1.2h-1.4V65H41z"/>
  <path d="M52.4,62.5c-0.7,0-1.2,0.6-1.2,1.2s0.6,1.2,1.2,1.2h1.4v-2.5H52.4z"/>
  <rect height="2.5" width="2.9" x="53.8" y="62.5"/>
  <path d="M58.1,65c0.7,0,1.2-0.6,1.2-1.2s-0.6-1.2-1.2-1.2h-1.4V65H58.1z"/>
  <circle cx="63.8" cy="63.8" r="1.2"/>
  <path d="M69.5,62.5c-0.7,0-1.2,0.6-1.2,1.2s0.6,1.2,1.2,1.2h1.4v-2.5H69.5z"/>
  <rect height="2.5" width="2.9" x="70.9" y="62.5"/>
  <rect height="2.5" width="2.9" x="73.8" y="62.5"/>
  <path d="M78,65c0.7,0,1.2-0.6,1.2-1.2s-0.6-1.2-1.2-1.2h-1.4V65H78z"/>
  <circle cx="41" cy="66.6" r="1.2"/>
  <path d="M52.4,65.4c-0.7,0-1.2,0.6-1.2,1.2s0.6,1.2,1.2,1.2h1.4v-2.5H52.4z"/>
  <rect height="2.5" width="2.9" x="53.8" y="65.4"/>
  <path d="M58.1,67.9c0.7,0,1.2-0.6,1.2-1.2s-0.6-1.2-1.2-1.2h-1.4v2.5H58.1z"/>
  <path d="M69.5,65.4c-0.7,0-1.2,0.6-1.2,1.2s0.6,1.2,1.2,1.2h1.4v-2.5H69.5z"/>
  <path d="M72.3,67.9c0.7,0,1.2-0.6,1.2-1.2s-0.6-1.2-1.2-1.2h-1.4v2.5H72.3z"/>
  <path d="M78,65.4c-0.7,0-1.2,0.6-1.2,1.2s0.6,1.2,1.2,1.2h1.4v-2.5H78z"/>
  <path d="M80.9,67.9c0.7,0,1.2-0.6,1.2-1.2s-0.6-1.2-1.2-1.2h-1.4v2.5H80.9z"/>
  <circle cx="23.9" cy="69.5" r="1.2"/>
  <path d="M29.6,68.2c-0.7,0-1.2,0.6-1.2,1.2s0.6,1.2,1.2,1.2H31v-2.5H29.6z"/>
  <rect height="2.5" width="2.9" x="31" y="68.2"/>
  <rect height="2.5" width="2.9" x="33.9" y="68.2"/>
  <rect height="2.5" width="2.9" x="36.7" y="68.2"/>
  <rect height="2.5" width="2.9" x="39.5" y="68.2"/>
  <rect height="2.5" width="2.9" x="42.4" y="68.2"/>
  <rect height="2.5" width="2.9" x="45.2" y="68.2"/>
  <rect height="2.5" width="2.9" x="48.1" y="68.2"/>
  <rect height="2.5" width="2.9" x="51" y="68.2"/>
  <rect height="2.5" width="2.9" x="53.8" y="68.2"/>
  <rect height="2.5" width="2.9" x="56.7" y="68.2"/>
  <rect height="2.5" width="2.9" x="59.5" y="68.2"/>
  <rect height="2.5" width="2.9" x="62.4" y="68.2"/>
  <rect height="2.5" width="2.9" x="65.2" y="68.2"/>
  <path d="M69.5,70.7c0.7,0,1.2-0.6,1.2-1.2s-0.6-1.2-1.2-1.2h-1.4v2.5H69.5z"/>
  <path d="M23.9,71.1c-0.7,0-1.2,0.6-1.2,1.2c0,0.7,0.6,1.2,1.2,1.2h1.4v-2.5H23.9z"/>
  <rect height="2.5" width="2.9" x="25.3" y="71.1"/>
  <path d="M29.6,73.6c0.7,0,1.2-0.6,1.2-1.2c0-0.7-0.6-1.2-1.2-1.2h-1.4v2.5H29.6z"/>
  <path d="M35.3,71.1c-0.7,0-1.2,0.6-1.2,1.2c0,0.7,0.6,1.2,1.2,1.2h1.4v-2.5H35.3z"/>
  <rect height="2.5" width="2.9" x="36.7" y="71.1"/>
  <rect height="2.5" width="2.9" x="39.5" y="71.1"/>
  <path d="M43.8,73.6c0.7,0,1.2-0.6,1.2-1.2c0-0.7-0.6-1.2-1.2-1.2h-1.4v2.5H43.8z"/>
  <circle cx="49.5" cy="72.3" r="1.2"/>
  <path d="M58.1,71.1c-0.7,0-1.2,0.6-1.2,1.2c0,0.7,0.6,1.2,1.2,1.2h1.4v-2.5H58.1z"/>
  <rect height="2.5" width="2.9" x="59.5" y="71.1"/>
  <path d="M63.8,73.6c0.7,0,1.2-0.6,1.2-1.2c0-0.7-0.6-1.2-1.2-1.2h-1.4v2.5H63.8z"/>
  <path d="M69.5,71.1c-0.7,0-1.2,0.6-1.2,1.2c0,0.7,0.6,1.2,1.2,1.2h1.4v-2.5H69.5z"/>
  <path d="M72.3,73.6c0.7,0,1.2-0.6,1.2-1.2c0-0.7-0.6-1.2-1.2-1.2h-1.4v2.5H72.3z"/>
  <path d="M23.9,73.9c-0.7,0-1.2,0.6-1.2,1.2s0.6,1.2,1.2,1.2h1.4v-2.5H23.9z"/>
  <path d="M26.7,76.4c0.7,0,1.2-0.6,1.2-1.2s-0.6-1.2-1.2-1.2h-1.4v2.5H26.7z"/>
  <circle cx="32.4" cy="75.2" r="1.2"/>
  <path d="M38.1,73.9c-0.7,0-1.2,0.6-1.2,1.2s0.6,1.2,1.2,1.2h1.4v-2.5H38.1z"/>
  <path d="M41,76.4c0.7,0,1.2-0.6,1.2-1.2s-0.6-1.2-1.2-1.2h-1.4v2.5H41z"/>
  <path d="M49.5,73.9c-0.7,0-1.2,0.6-1.2,1.2s0.6,1.2,1.2,1.2H51v-2.5H49.5z"/>
  <path d="M52.4,76.4c0.7,0,1.2-0.6,1.2-1.2s-0.6-1.2-1.2-1.2H51v2.5H52.4z"/>
  <path d="M60.9,73.9c-0.7,0-1.2,0.6-1.2,1.2s0.6,1.2,1.2,1.2h1.4v-2.5H60.9z"/>
  <rect height="2.5" width="2.9" x="62.4" y="73.9"/>
  <rect height="2.5" width="2.9" x="65.2" y="73.9"/>
  <path d="M69.5,76.4c0.7,0,1.2-0.6,1.2-1.2s-0.6-1.2-1.2-1.2h-1.4v2.5H69.5z"/>
  <path d="M75.2,73.9c-0.7,0-1.2,0.6-1.2,1.2s0.6,1.2,1.2,1.2h1.4v-2.5H75.2z"/>
  <path d="M78,76.4c0.7,0,1.2-0.6,1.2-1.2s-0.6-1.2-1.2-1.2h-1.4v2.5H78z"/>
  <circle cx="26.7" cy="78" r="1.2"/>
  <path d="M32.4,76.8c-0.7,0-1.2,0.6-1.2,1.2s0.6,1.2,1.2,1.2h1.4v-2.5H32.4z"/>
  <path d="M35.3,79.3c0.7,0,1.2-0.6,1.2-1.2s-0.6-1.2-1.2-1.2h-1.4v2.5H35.3z"/>
  <circle cx="41" cy="78" r="1.2"/>
  <path d="M46.7,76.8c-0.7,0-1.2,0.6-1.2,1.2s0.6,1.2,1.2,1.2h1.4v-2.5H46.7z"/>
  <rect height="2.5" width="2.9" x="48.1" y="76.8"/>
  <path d="M52.4,79.3c0.7,0,1.2-0.6,1.2-1.2s-0.6-1.2-1.2-1.2H51v2.5H52.4z"/>
  <circle cx="58.1" cy="78" r="1.2"/>
  <circle cx="66.6" cy="78" r="1.2"/>
  <circle cx="72.3" cy="78" r="1.2"/>
  <circle cx="80.9" cy="78" r="1.2"/>
  <circle cx="29.6" cy="80.9" r="1.2"/>
  <circle cx="41" cy="80.9" r="1.2"/>
  <path d="M49.5,79.6c-0.7,0-1.2,0.6-1.2,1.2s0.6,1.2,1.2,1.2H51v-2.5H49.5z"/>
  <rect height="2.5" width="2.9" x="51" y="79.6"/>
  <path d="M55.2,82.1c0.7,0,1.2-0.6,1.2-1.2s-0.6-1.2-1.2-1.2h-1.4v2.5H55.2z"/>
  <path d="M60.9,79.6c-0.7,0-1.2,0.6-1.2,1.2s0.6,1.2,1.2,1.2h1.4v-2.5H60.9z"/>
  <rect height="2.5" width="2.9" x="62.4" y="79.6"/>
  <rect height="2.5" width="2.9" x="65.2" y="79.6"/>
  <rect height="2.5" width="2.9" x="68.1" y="79.6"/>
  <path d="M72.3,82.1c0.7,0,1.2-0.6,1.2-1.2s-0.6-1.2-1.2-1.2h-1.4v2.5H72.3z"/>
  <path d="M0.3-0.4c-0.3,0-0.6,0.3-0.6,0.6v2.2v2.8v2.8v2.9v2.9v2.8V19c0,0.3,0.3,0.6,0.6,0.6H19c0.3,0,0.6-0.3,0.6-0.6v-2.2v-2.8
	v-2.9V8.2V5.3V2.5V0.3c0-0.3-0.3-0.6-0.6-0.6C19-0.4,0.3-0.4,0.3-0.4z M16.8,5.3v2.8v2.9v2.9v2.5c0,0.2-0.2,0.3-0.3,0.3H2.8
	c-0.2,0-0.3-0.2-0.3-0.3v-2.5v-2.9V8.2V5.3V2.8c0-0.2,0.2-0.3,0.3-0.3h13.6c0.2,0,0.3,0.2,0.3,0.3V5.3z"/>
  <path d="M13.9,11.1V8.2V6c0-0.3-0.3-0.6-0.6-0.6H6C5.6,5.3,5.3,5.6,5.3,6v2.2v2.9v2.2c0,0.3,0.3,0.6,0.6,0.6h7.3
	c0.3,0,0.6-0.3,0.6-0.6V11.1z"/>
  <path d="M63-0.4c-0.3,0-0.6,0.3-0.6,0.6v2.2v2.8v2.8v2.9v2.9v2.8V19c0,0.3,0.3,0.6,0.6,0.6h18.7c0.3,0,0.6-0.3,0.6-0.6v-2.2v-2.8
	v-2.9V8.2V5.3V2.5V0.3c0-0.3-0.3-0.6-0.6-0.6C81.7-0.4,63-0.4,63-0.4z M79.5,5.3v2.8v2.9v2.9v2.5c0,0.2-0.2,0.3-0.3,0.3H65.5
	c-0.2,0-0.3-0.2-0.3-0.3v-2.5v-2.9V8.2V5.3V2.8c0-0.2,0.2-0.3,0.3-0.3h13.6c0.2,0,0.3,0.2,0.3,0.3V5.3z"/>
  <path d="M76.6,11.1V8.2V6c0-0.3-0.3-0.6-0.6-0.6h-7.3C68.3,5.3,68,5.6,68,6v2.2v2.9v2.2c0,0.3,0.3,0.6,0.6,0.6H76
	c0.3,0,0.6-0.3,0.6-0.6V11.1z"/>
  <path d="M0.3,62.3c-0.3,0-0.6,0.3-0.6,0.6v2.2v2.8v2.8v2.8v2.8v2.9v2.2c0,0.3,0.3,0.6,0.6,0.6H19c0.3,0,0.6-0.3,0.6-0.6v-2.2v-2.9
	v-2.8v-2.8v-2.8v-2.8V63c0-0.3-0.3-0.6-0.6-0.6C19,62.3,0.3,62.3,0.3,62.3z M16.8,68.1v2.8v2.8v2.8v2.5c0,0.2-0.2,0.3-0.3,0.3H2.8
	c-0.2,0-0.3-0.2-0.3-0.3v-2.5v-2.8v-2.8v-2.8v-2.5c0-0.2,0.2-0.3,0.3-0.3h13.6c0.2,0,0.3,0.2,0.3,0.3V68.1z"/>
  <path d="M13.9,73.8v-2.8v-2.2c0-0.3-0.3-0.6-0.6-0.6H6c-0.3,0-0.6,0.3-0.6,0.6v2.2v2.8V76c0,0.3,0.3,0.6,0.6,0.6h7.3
	c0.3,0,0.6-0.3,0.6-0.6V73.8z"/>
  <g>
	<g>
		<g>
			<path d="M33.7,35.7c0-0.2-0.1-0.4-0.2-0.6c-0.2-0.1-0.5-0.3-0.9-0.4c-0.7-0.2-1.3-0.5-1.6-0.7c-0.4-0.3-0.6-0.7-0.6-1.2
				s0.2-0.9,0.6-1.2c0.4-0.3,1-0.5,1.6-0.5c0.7,0,1.2,0.2,1.6,0.5c0.4,0.4,0.6,0.8,0.6,1.3l0,0h-1.2c0-0.3-0.1-0.5-0.3-0.7
				C33.2,32.1,33,32,32.6,32c-0.3,0-0.6,0.1-0.8,0.2c-0.2,0.1-0.3,0.3-0.3,0.6c0,0.2,0.1,0.4,0.3,0.5c0.2,0.1,0.5,0.3,1,0.4
				c0.7,0.2,1.2,0.4,1.5,0.7c0.3,0.3,0.5,0.7,0.5,1.2c0,0.5-0.2,0.9-0.6,1.2c-0.4,0.3-0.9,0.4-1.6,0.4c-0.7,0-1.2-0.2-1.7-0.5
				s-0.7-0.8-0.7-1.4l0,0h1.2c0,0.4,0.1,0.6,0.3,0.8c0.2,0.2,0.5,0.3,0.9,0.3c0.3,0,0.6-0.1,0.8-0.2C33.6,36.1,33.7,35.9,33.7,35.7z
				"/>
      <path d="M40.4,35.2L40.4,35.2c0,0.7-0.2,1.2-0.6,1.6c-0.4,0.4-1,0.6-1.7,0.6c-0.7,0-1.3-0.2-1.8-0.7c-0.5-0.5-0.7-1.1-0.7-1.8
				v-1.2c0-0.7,0.2-1.3,0.7-1.8c0.4-0.5,1-0.7,1.7-0.7c0.7,0,1.3,0.2,1.8,0.6s0.6,0.9,0.6,1.6l0,0h-1.2c0-0.4-0.1-0.7-0.3-0.9
				c-0.2-0.2-0.5-0.3-0.9-0.3c-0.4,0-0.7,0.1-0.9,0.4c-0.2,0.3-0.3,0.7-0.3,1.1v1.2c0,0.5,0.1,0.8,0.3,1.1c0.2,0.3,0.5,0.4,0.9,0.4
				c0.4,0,0.7-0.1,0.8-0.3c0.2-0.2,0.3-0.5,0.3-0.9H40.4z"/>
      <path d="M44.5,36h-2.1L42,37.3h-1.2l2.1-6h1.2l2.1,6h-1.2L44.5,36z M42.7,35h1.5l-0.7-2.4h0L42.7,35z"/>
      <path d="M51.6,37.3h-1.2L48,33.1l0,0v4.1h-1.2v-6h1.2l2.4,4.1l0,0v-4.1h1.2V37.3z"/>
		</g>
    <g>
			<path
        d="M32.2,39.5l3.6,9.1h0l3.6-9.1h1.9v11.3h-1.5v-4.5l0.2-4.6l0,0l-3.6,9h-1l-3.6-9l0,0l0.1,4.6v4.5h-1.5V39.5H32.2z"/>
      <path d="M50.8,45.6h-5.2v4h5.9v1.2h-7.5V39.5h7.4v1.2h-5.9v3.6h5.2V45.6z"/>
		</g>
	</g>
</g>
</svg>
